<?xml version="1.0" encoding="UTF-8"?>
<svg xmlns="http://www.w3.org/2000/svg" viewBox="0 0 480 512" width="512" height="512">
	<title>Super Mega</title>
	<g transform="translate(0,512) scale(0.1,-0.1)" fill="none">
		<path fill="#076B38" d="M1480 4904 c-235 -47 -431 -194 -530 -399 -53 -109 -72 -196 -71 -331 l0 -110 -137 0 c-127 0 -144 -3 -224 -31 -119 -41 -188 -84 -279 -173 -133 -131 -198 -278 -206 -470 -14 -299 139 -551 412 -681 147 -70 140 -70 1063 -67 l822 3 1 815 c1 721 -1 823 -15 884 -59 250 -238 445 -489 533 -71 25 -276 41 -347 27z"/>
		<path fill="#27094D" d="M560 2469 c-234 -60 -421 -236 -496 -466 -37 -112 -42 -306 -10 -408 100 -328 370 -528 712 -527 l112 0 0 -103 c1 -604 686 -944 1170 -580 121 91 210 221 259 380 l27 90 3 818 4 817 -853 -1 c-812 0 -857 -1 -928 -20z"/>
		<path fill="#C34E17" d="M2474 2486 c-3 -7 -3 -379 -1 -827 3 -905 0 -851 73 -1005 93 -196 287 -355 494 -405 80 -20 270 -17 348 4 323 90 536 362 548 702 l4 110 74 -3 c420 -19 772 314 768 730 -2 322 -216 595 -531 680 -74 20 -103 21 -924 23 -664 2 -849 0 -853 -9z"/>
		<path fill="#B10591" d="M3110 4914 c-279 -55 -486 -214 -583 -449 -55 -134 -56 -149 -57 -1028 l0 -808 858 4 c959 3 897 -1 1057 77 523 257 539 1005 27 1278 -121 64 -211 85 -356 80 l-121 -3 0 130 c-1 149 -14 205 -76 326 -95 183 -275 327 -469 374 -67 16 -236 27 -280 19z"/>
	</g>
</svg>
